<svg width="64" height="64" viewBox="0 0 64 64" fill="none" xmlns="http://www.w3.org/2000/svg" role="img" aria-label="Shady expressionist favicon">
  <defs>
    <radialGradient id="bg" cx="0" cy="0" r="1" gradientUnits="userSpaceOnUse" gradientTransform="translate(32 31) rotate(90) scale(35)">
      <stop stop-color="#0B0D0E"/>
      <stop offset="0.7" stop-color="#020303"/>
      <stop offset="1" stop-color="#000000"/>
    </radialGradient>
    <linearGradient id="f" x1="13" y1="6" x2="52" y2="58" gradientUnits="userSpaceOnUse">
      <stop stop-color="#252B2E"/>
      <stop offset="0.55" stop-color="#0D1012"/>
      <stop offset="1" stop-color="#1A1016"/>
    </linearGradient>
    <linearGradient id="g" x1="18" y1="13" x2="47" y2="53" gradientUnits="userSpaceOnUse">
      <stop stop-color="#00FF78"/>
      <stop offset="1" stop-color="#004D2B"/>
    </linearGradient>
  </defs>
  <rect width="64" height="64" fill="url(#bg)"/>
  <path d="M42.5 8.5C37 4.5 28 4.5 21 8.5C15 12 13 20 17.2 24.3C20.7 28 27 28.2 33.5 30.5C39 32.4 42 35.5 40.7 39.5C39 45 31 46 25.2 43.6C20.5 41.7 17 38.2 12.5 39.8C8 41.4 7.5 47.5 11.2 51.6C16.7 57.7 34 59 45.2 52.2C54.4 46.6 55.7 36.4 48.7 29.5C45.4 26.2 39.7 24.4 33.2 22.6C28 21.2 25.1 19.1 26.2 15.8C27.5 11.9 34 11.8 39.3 14.3C42.4 15.7 45.1 18.2 48.1 16.7C51.5 15 47.6 11.1 42.5 8.5Z" fill="url(#f)" stroke="#343A3D" stroke-width="1"/>
  <path d="M21 10C28 6.5 37 7.8 44.5 12.2L39 16C34.5 13.9 29 13.7 26.5 16.2C23.5 19.1 28 22 34 23.5L48.8 29.5C42.5 27.2 32.2 26.3 24.5 23.5C17.5 21 16.5 15.5 21 10Z" fill="#2B3033" opacity="0.72"/>
  <path d="M13 41C19 39 22.5 44 28.8 45.3C36 47 43.2 44.5 45.6 38C47 45.8 37.7 54.5 25.8 53.5C17.5 52.8 10.8 48.2 11.4 44.3C11.6 42.8 12.1 41.7 13 41Z" fill="#090A0B" opacity="0.82"/>
  <path d="M22 14C28 11.3 35 12.1 42 15.8" stroke="url(#g)" stroke-width="2.3" stroke-linecap="round" opacity="0.55"/>
  <path d="M14 49C20 54 33 55.5 43 50" stroke="#00FF78" stroke-width="1.6" stroke-linecap="round" opacity="0.35"/>
  <path d="M47 18L56 13" stroke="#000000" stroke-width="5" stroke-linecap="square" opacity="0.9"/>
  <path d="M6 40L15 38" stroke="#000000" stroke-width="6" stroke-linecap="square" opacity="0.9"/>
  <circle cx="43" cy="15" r="1.2" fill="#00FF78" opacity="0.68"/>
</svg>
